<svg xmlns="http://www.w3.org/2000/svg" width="1280" height="850" viewBox="0 0 1280 850"><defs><radialGradient id="g"><stop stop-color="#efc994" stop-opacity=".2"/><stop offset="1" stop-color="#352a22" stop-opacity="0"/></radialGradient><pattern id="grid" width="55" height="55" patternUnits="userSpaceOnUse"><path d="M55 0H0V55" fill="none" stroke="#efc994" stroke-opacity=".08"/></pattern></defs><rect width="1280" height="850" fill="#352a22"/><rect width="1280" height="850" fill="url(#grid)"/><circle cx="880" cy="340" r="430" fill="url(#g)"/><rect x="52" y="48" width="1176" height="754" rx="36" fill="none" stroke="#efc994" stroke-opacity=".35"/><g fill="none" stroke="#a9c7eb" stroke-width="12" stroke-linecap="round" stroke-linejoin="round" opacity=".9"><path d="M620 610q120-170 220-70t240-155M610 490q100-90 220-25t230-155M765 260q0-85 85-85t85 85q0 80-85 165-85-85-85-165Z"/><circle cx="850" cy="260" r="30"/></g><g font-family="PingFang SC,Microsoft YaHei,sans-serif"><text x="95" y="150" fill="#efc994" font-size="28" letter-spacing="4">上海 / 休闲躺平</text><path d="M95 540h340" stroke="#efc994" stroke-width="4"/><text x="95" y="740" fill="#c5c9c4" font-size="21">粗去玩鸭 · 玩法主题示意 / 非地点实拍</text></g></svg>